<svg xmlns="http://www.w3.org/2000/svg" xmlns:xlink="http://www.w3.org/1999/xlink" font-size="6" font-family="Special Elite" text-anchor="middle" viewBox="5 0 430 370"><defs><marker id="f2" orient="auto" overflow="visible" refX="0" refY="0"><path stroke="#000" stroke-width=".19" d="m-1.93-1.21 3.28 1.2-3.28 1.21c.53-.71.53-1.68 0-2.41z"/></marker><marker id="e2" orient="auto" overflow="visible" refX="0" refY="0"><path stroke="#000" stroke-width=".19" d="m-1.93-1.21 3.28 1.2-3.28 1.21c.53-.71.53-1.68 0-2.41z"/></marker><marker id="c2" orient="auto" overflow="visible" refX="0" refY="0"><path stroke="#000" stroke-width=".19" d="m-1.93-1.21 3.28 1.2-3.28 1.21c.53-.71.53-1.68 0-2.41z"/></marker><marker id="b2" orient="auto" overflow="visible" refX="0" refY="0"><path stroke="#000" stroke-width=".19" d="m-1.93-1.21 3.28 1.2-3.28 1.21c.53-.71.53-1.68 0-2.41z"/></marker><marker id="a2" orient="auto" overflow="visible" refX="0" refY="0"><path stroke="#000" stroke-width=".19" d="m-1.93-1.21 3.28 1.2-3.28 1.21c.53-.71.53-1.68 0-2.41z"/></marker></defs><circle cx="415" cy="320" r="10" fill="#fff" stroke="#000"/><text x="415" y="323.5" font-size="10">E</text><text x="415" y="305" stroke-width="5" font-size="13">1</text><path fill="none" stroke="#000" stroke-width="2" marker-end="url(#a)" d="m400 290 10.53 21.06"/><path fill="none" stroke="#000" d="m385 320 15-30"/><circle cx="235" cy="320" r="10" fill="#fff" stroke="#000"/><text x="235" y="323.5" font-size="10">D</text><path fill="none" stroke="#000" d="m340 50 15 30"/><text x="140" y="30" stroke-width="5" font-size="13" transform="translate(-70 145)">11 → F</text><text x="370" y="175" stroke-width="5" font-size="13">00 → C</text><text x="220" y="355" stroke-width="5" font-size="13">1010 → D</text><text x="370.59" y="355" stroke-width="5" font-size="13">1011 → E</text><path fill="none" stroke="#000" d="m85 80 15-30"/><g id="d2"><path fill="none" stroke="#000" d="m85 140 15-30 15 30M70 110l15-30 15 30"/><circle cx="85" cy="80" r="10" fill="#fff" stroke="#000"/><circle cx="70" cy="110" r="10" fill="#fff" stroke="#000"/><text x="70" y="113.5" font-size="10">B</text><circle cx="100" cy="110" r="10" fill="#fff" stroke="#000"/><circle cx="85" cy="140" r="10" fill="#fff" stroke="#000"/><text x="85" y="143.5" font-size="10">D</text><circle cx="115" cy="140" r="10" fill="#fff" stroke="#000"/><text x="115" y="143.5" font-size="10">E</text></g><circle cx="115" cy="80" r="10" fill="#fff" stroke="#000"/><text x="115" y="84" font-size="10">F</text><text x="115" y="65" stroke-width="5" font-size="13">1</text><path fill="none" stroke="#000" stroke-width="2" marker-end="url(#b)" d="m100 50 10.53 21.06"/><path fill="none" stroke="#000" d="M70 20 40 50"/><circle cx="100" cy="50" r="10" fill="#fff" stroke="#000"/><text x="90" y="35" stroke-width="5" font-size="13">1</text><g id="h2"><path fill="none" stroke="#000" d="m25 80 15-30 15 30"/><circle cx="25" cy="80" r="10" fill="#fff" stroke="#000"/><text x="25" y="84" font-size="10">C</text><circle cx="55" cy="80" r="10" fill="#fff" stroke="#000"/><text x="55" y="84" font-size="10">A</text><circle cx="40" cy="50" r="10" fill="#fff" stroke="#000"/></g><path fill="none" stroke="#000" stroke-width="2" marker-end="url(#c)" d="m70 20 22.93 22.93"/><circle cx="70" cy="20" r="10" fill="#fff" stroke="#000"/><g id="g2"><path fill="none" stroke="#000" d="m220 20 30 30M235 80l15-30 15 30"/><text x="220" y="175" stroke-width="5" font-size="13">01 → A</text><path fill="none" stroke="#000" d="m175 80 15-30"/><circle cx="175" cy="80" r="10" fill="#fff" stroke="#000"/><text x="175" y="84" font-size="10">C</text><circle cx="205" cy="80" r="10" fill="#fff" stroke="#000"/><text x="205" y="84" font-size="10">A</text><circle cx="265" cy="80" r="10" fill="#fff" stroke="#000"/><text x="265" y="84" font-size="10">F</text><circle cx="250" cy="50" r="10" fill="#fff" stroke="#000"/><use xlink:href="#d2" transform="translate(150)"/><text x="205" y="30" stroke-width="5" font-size="13">0</text><text x="205" y="65" stroke-width="5" font-size="13">1</text><path fill="none" stroke="#000" stroke-width="2" marker-end="url(#b)" d="m190 50 10.53 21.06"/><circle cx="190" cy="50" r="10" fill="#fff" stroke="#000"/><path fill="none" stroke="#000" stroke-width="2" marker-end="url(#e)" d="m221.04 18.96-22.93 22.93"/><circle cx="220" cy="20" r="10" fill="#fff" stroke="#000"/></g><path fill="none" stroke="#000" d="m370 20 30 30M385 80l15-30 15 30"/><circle cx="325" cy="80" r="10" fill="#fff" stroke="#000"/><text x="325" y="84" font-size="10">C</text><circle cx="355" cy="80" r="10" fill="#fff" stroke="#000"/><text x="355" y="84" font-size="10">A</text><circle cx="415" cy="80" r="10" fill="#fff" stroke="#000"/><text x="415" y="84" font-size="10">F</text><circle cx="400" cy="50" r="10" fill="#fff" stroke="#000"/><text x="355" y="30" stroke-width="5" font-size="13">0</text><use xlink:href="#d2" transform="translate(300)"/><text x="325" y="65" stroke-width="5" font-size="13">0</text><path fill="none" stroke="#000" stroke-width="2" marker-end="url(#f)" d="m340 50-10.53 21.06"/><circle cx="340" cy="50" r="10" fill="#fff" stroke="#000"/><path fill="none" stroke="#000" stroke-width="2" marker-end="url(#e)" d="m371.04 18.96-22.93 22.93"/><circle cx="370" cy="20" r="10" fill="#fff" stroke="#000"/><use xlink:href="#g2" transform="translate(-150 180)"/><path fill="none" stroke="#000" d="m250 290 15 30"/><circle cx="265" cy="320" r="10" fill="#fff" stroke="#000"/><text x="265" y="323.5" font-size="10">E</text><text x="235" y="305" stroke-width="5" font-size="13">0</text><path fill="none" stroke="#000" stroke-width="2" marker-end="url(#f)" d="m250 290-10.53 21.06"/><g id="i2"><path fill="none" stroke="#000" d="m250 230 15 30"/><text x="235" y="245" stroke-width="5" font-size="13">0</text><path fill="none" stroke="#000" d="m220 290 15-30"/><circle cx="220" cy="290" r="10" fill="#fff" stroke="#000"/><text x="220" y="293.5" font-size="10">B</text><circle cx="265" cy="260" r="10" fill="#fff" stroke="#000"/><text x="265" y="264" font-size="10">F</text><path fill="none" stroke="#000" d="m220 200-30 30"/><text x="240" y="215" stroke-width="5" font-size="13">1</text><text x="250" y="275" stroke-width="5" font-size="13">1</text><circle cx="250" cy="290" r="10" fill="#fff" stroke="#000"/><path fill="none" stroke="#000" stroke-width="2" marker-end="url(#b)" d="m235 260 10.53 21.06"/><circle cx="235" cy="260" r="10" fill="#fff" stroke="#000"/><path fill="none" stroke="#000" stroke-width="2" marker-end="url(#f)" d="m250 230-10.53 21.06"/><circle cx="250" cy="230" r="10" fill="#fff" stroke="#000"/><path fill="none" stroke="#000" stroke-width="2" marker-end="url(#c)" d="m220 200 22.93 22.93"/><circle cx="220" cy="200" r="10" fill="#fff" stroke="#000"/><use xlink:href="#h2" transform="translate(150 180)"/></g><use xlink:href="#i2" transform="translate(150)"/><circle cx="385" cy="320" r="10" fill="#fff" stroke="#000"/><text x="385" y="323.5" font-size="10">D</text></svg>